<?xml version="1.0" standalone="no"?>
<!DOCTYPE svg PUBLIC "-//W3C//DTD SVG 20010904//EN"
 "http://www.w3.org/TR/2001/REC-SVG-20010904/DTD/svg10.dtd">
<svg version="1.0" xmlns="http://www.w3.org/2000/svg"
 width="5000.000000pt" height="3334.000000pt" viewBox="0 0 5000.000000 3334.000000"
 preserveAspectRatio="xMidYMid meet">

<g transform="translate(0.000000,3334.000000) scale(0.100000,-0.100000)"
fill="#000000" stroke="none">
<path d="M32854 26071 c-46 -28 -58 -73 -51 -200 12 -228 146 -604 383 -1071
154 -305 406 -728 576 -968 32 -45 58 -84 58 -87 0 -3 -7 -5 -15 -5 -9 0 -18
-7 -21 -15 -4 -10 -10 -12 -18 -6 -12 10 -86 -17 -86 -32 0 -4 5 -5 11 -1 7 4
24 7 38 8 16 1 25 6 23 14 -1 8 2 11 8 7 6 -3 8 -11 5 -16 -4 -5 -2 -9 3 -9 5
0 13 9 18 20 8 19 11 19 29 6 19 -15 19 -15 -4 -9 -21 5 -22 4 -12 -15 7 -14
8 -23 1 -27 -6 -4 -9 -3 -8 2 3 8 -5 13 -23 13 -5 0 -8 -4 -5 -9 4 -5 -7 -4
-22 1 -16 6 -37 8 -46 5 -25 -10 -31 -7 -29 11 1 9 0 12 -3 5 -3 -7 -12 -9
-20 -6 -8 3 -14 0 -14 -7 0 -6 5 -8 10 -5 6 3 10 1 10 -4 0 -14 -13 -14 -27 0
-8 8 -19 6 -41 -5 -16 -8 -32 -12 -35 -9 -4 3 -10 -3 -13 -13 -10 -27 -40 -54
-61 -54 -17 1 -17 1 0 11 17 10 15 29 -4 29 -6 0 -7 -4 -4 -10 3 -6 -1 -7 -9
-4 -9 3 -16 1 -16 -5 0 -6 -7 -8 -17 -4 -12 5 -14 3 -8 -7 6 -10 4 -12 -8 -7
-9 3 -19 2 -22 -3 -4 -6 -15 -10 -26 -10 -13 0 -19 -7 -20 -22 0 -22 -1 -22
-9 -3 -5 11 -9 14 -9 7 -1 -7 -5 -11 -10 -7 -12 7 -52 -35 -45 -46 3 -5 -2 -6
-11 -3 -14 6 -14 8 2 20 10 7 15 14 12 14 -11 0 -129 -60 -129 -66 0 -3 5 -2
10 1 15 9 12 -4 -5 -21 -13 -14 -15 -14 -15 0 0 9 -5 16 -10 16 -22 0 -4 -35
20 -41 l25 -7 -26 -1 c-14 0 -34 5 -44 13 -17 12 -26 10 -74 -16 -31 -17 -58
-33 -61 -37 -3 -3 -22 -15 -42 -25 -21 -11 -38 -23 -38 -28 0 -5 -6 -6 -12 -2
-10 6 -10 4 0 -7 6 -7 12 -18 12 -23 0 -6 -5 -4 -10 4 -8 12 -10 12 -10 -5 -1
-18 -2 -18 -12 -4 -11 15 -13 15 -31 -5 -10 -11 -15 -15 -11 -7 5 10 3 12 -5
7 -7 -5 -10 -15 -7 -23 4 -10 0 -13 -12 -11 -20 3 -72 -27 -72 -42 0 -6 7 -10
16 -10 8 0 13 4 9 9 -3 5 -1 13 5 16 6 4 9 1 8 -6 -2 -6 3 -14 11 -17 9 -3 11
0 6 9 -5 8 -5 11 0 7 4 -4 14 0 21 10 7 9 14 12 14 6 0 -6 -7 -17 -15 -24 -8
-7 -13 -15 -11 -19 3 -4 -22 -6 -55 -5 -48 2 -62 -1 -72 -17 -8 -10 -16 -16
-19 -14 -3 3 -18 -9 -33 -27 -15 -18 -31 -32 -34 -31 -12 3 -100 -81 -94 -91
4 -6 3 -8 -2 -4 -11 10 -45 -10 -45 -27 0 -8 -4 -14 -9 -13 -12 4 -111 -81
-111 -94 0 -6 12 -3 26 7 14 9 28 14 31 11 3 -3 15 0 27 6 18 10 19 9 9 -4 -7
-8 -11 -17 -8 -19 2 -3 -8 -5 -23 -4 -16 1 -40 -10 -60 -27 -18 -15 -43 -27
-55 -27 l-22 2 23 4 c19 4 50 40 40 48 -2 1 -19 -10 -38 -24 -37 -28 -53 -58
-25 -47 9 3 14 2 10 -3 -3 -5 -22 -9 -43 -8 -25 1 -36 -3 -34 -11 1 -7 -3 -12
-10 -11 -7 1 -20 1 -28 0 -12 -1 -12 -4 3 -12 9 -5 23 -7 30 -3 6 4 3 -3 -8
-16 -11 -13 -15 -20 -8 -17 6 4 14 4 17 -1 2 -4 -6 -8 -18 -8 -17 0 -22 5 -19
17 4 13 -1 17 -15 16 -11 0 -18 -5 -16 -9 3 -4 0 -8 -6 -8 -6 0 -8 -5 -4 -12
6 -10 4 -10 -8 0 -14 11 -22 8 -52 -19 -28 -24 -35 -37 -31 -53 5 -17 4 -18
-4 -6 -7 10 -11 11 -11 3 0 -7 -8 -13 -17 -13 -15 0 -15 2 -4 9 8 5 16 16 17
24 1 10 -15 5 -55 -17 -31 -17 -70 -38 -88 -45 -20 -8 -30 -18 -26 -27 4 -11
7 -11 20 1 20 20 29 19 12 -2 -13 -15 -12 -16 9 -11 12 4 22 2 22 -3 0 -13
-54 -11 -68 3 -9 9 -15 8 -25 -6 -8 -10 -20 -16 -28 -13 -10 4 -9 6 4 6 9 1
17 5 17 10 0 5 -22 0 -50 -12 -47 -20 -72 -43 -32 -31 13 4 14 3 4 -4 -8 -5
-13 -13 -12 -18 1 -5 -4 -10 -12 -12 -11 -3 -11 -2 0 6 10 7 10 11 -3 22 -11
9 -15 9 -15 1 0 -7 -5 -9 -10 -6 -15 9 -41 -15 -33 -29 4 -6 -2 -4 -12 4 -14
11 -19 12 -22 2 -3 -6 -8 -10 -13 -7 -5 3 -15 -2 -24 -11 -9 -8 -21 -12 -27
-8 -8 5 -9 3 -4 -6 6 -10 4 -12 -8 -7 -10 3 -17 3 -17 -1 0 -4 -9 -18 -20 -32
-16 -20 -19 -21 -13 -5 3 11 11 24 17 28 13 10 5 8 -84 -23 -36 -13 -71 -28
-79 -34 -8 -6 -22 -10 -33 -8 -10 2 -18 -1 -18 -7 0 -6 -6 -8 -14 -5 -20 8
-30 -14 -16 -31 7 -8 9 -15 5 -15 -4 0 -13 8 -20 17 -12 16 -16 16 -74 -2 -34
-10 -65 -23 -68 -28 -3 -6 -1 -7 5 -3 7 4 12 2 12 -3 0 -13 -17 -14 -24 -2 -4
5 -23 5 -47 -1 -22 -6 -37 -14 -32 -17 19 -14 11 -28 -13 -23 -20 3 -23 7 -12
14 9 6 5 7 -12 2 -14 -3 -32 -13 -41 -20 -8 -8 -22 -14 -30 -13 -8 0 -6 4 6 9
11 5 14 9 7 9 -7 1 -28 -5 -47 -13 -18 -8 -35 -12 -38 -10 -2 3 -10 -2 -17
-11 -7 -8 -18 -15 -24 -15 -6 0 -4 5 4 11 12 9 11 9 -5 4 -11 -4 -25 -8 -32
-8 -7 0 -10 -4 -7 -9 3 -5 -7 -6 -23 -3 -24 4 -25 4 -8 -5 17 -9 15 -10 -12
-5 -39 5 -63 -2 -63 -21 0 -10 -6 -11 -24 -4 -32 12 -257 -39 -309 -70 -21
-13 -41 -20 -44 -16 -4 3 -1 6 5 6 7 0 12 5 12 11 0 7 -8 9 -22 4 -13 -4 -31
-7 -40 -6 -10 0 -18 -4 -18 -9 0 -5 -10 -8 -22 -8 -43 3 -83 -2 -98 -12 -13
-9 -13 -11 0 -20 12 -8 9 -10 -14 -10 -25 0 -27 -2 -16 -15 7 -9 16 -12 19 -8
3 4 17 9 31 10 14 1 18 0 8 -3 -10 -3 -18 -9 -18 -14 0 -18 -32 -2 -62 31 -47
51 -101 139 -172 278 -90 177 -146 335 -190 534 -8 32 31 70 -446 -438 -261
-279 -290 -317 -305 -412 -22 -142 86 -293 233 -324 54 -11 84 -7 546 71 269
45 492 78 496 73 5 -4 62 -87 127 -183 267 -393 844 -1237 961 -1405 208 -298
203 -294 285 -295 143 -1 385 131 569 310 l100 97 -3 69 c-4 54 -13 86 -42
149 -124 261 -468 669 -1070 1267 -130 130 -145 148 -125 152 13 3 49 10 81
16 55 11 71 23 45 33 -8 3 -6 6 5 6 9 1 17 -6 17 -14 0 -19 14 -19 34 1 9 9
16 11 16 4 0 -13 71 -3 81 12 3 5 13 6 22 2 10 -3 29 2 43 11 15 9 23 11 19 4
-6 -9 -2 -10 16 -5 13 4 29 8 36 8 7 1 10 5 7 9 -2 4 10 7 28 7 18 -1 46 1 61
3 24 3 27 7 22 26 -3 13 -1 23 5 23 5 0 9 -3 9 -7 -5 -29 2 -35 34 -29 60 11
72 13 90 15 10 0 16 5 13 9 -3 4 10 7 27 6 18 -2 42 4 55 12 13 9 22 10 22 4
0 -6 5 -8 10 -5 6 4 7 11 4 17 -4 7 0 7 13 0 13 -7 38 -6 83 4 36 9 75 16 88
17 12 0 22 5 22 10 0 5 11 6 24 3 14 -3 27 -2 31 3 3 6 15 8 26 6 15 -3 19 0
15 11 -4 10 -2 13 7 7 19 -12 45 -14 52 -3 3 5 12 7 20 3 8 -3 15 0 15 6 0 6
-5 11 -12 11 -6 0 -9 2 -6 5 3 3 16 1 30 -4 23 -9 39 -6 168 23 8 2 14 12 13
22 -1 17 0 17 10 4 7 -9 18 -15 25 -14 6 1 17 2 23 3 5 0 7 7 3 14 -5 8 -2 8
9 -2 11 -9 17 -10 17 -2 0 6 5 11 11 11 5 0 8 -4 4 -9 -3 -6 8 -6 27 0 18 6
43 12 55 13 13 2 30 9 40 17 14 11 15 11 9 0 -7 -10 -3 -12 15 -7 70 19 98 30
94 36 -2 4 2 7 10 7 8 0 12 -4 9 -8 -2 -4 5 -6 17 -4 13 3 26 10 30 16 5 8 8
7 11 -2 4 -11 10 -10 28 6 13 11 20 14 15 6 -6 -10 -4 -12 4 -6 7 4 28 9 47
11 44 4 61 14 43 25 -10 6 -10 9 -2 9 6 0 14 -4 18 -9 7 -12 45 -10 45 2 0 4
4 5 10 2 9 -5 123 18 160 32 8 4 26 8 40 10 47 5 50 6 50 15 0 4 -6 8 -14 8
-8 0 -17 4 -20 8 -4 6 12 7 59 3 6 -1 3 -6 -5 -11 -9 -6 -10 -10 -3 -10 19 0
43 12 38 19 -2 4 2 8 10 8 8 0 12 -5 8 -10 -3 -5 3 -7 13 -4 11 3 39 11 64 17
25 6 52 14 60 17 8 3 28 7 44 9 16 2 34 8 41 14 6 5 28 11 49 14 20 3 45 11
54 18 13 11 15 11 7 -2 -6 -12 -5 -12 5 -3 7 6 18 9 25 7 7 -3 16 -1 19 5 4 6
13 8 20 5 8 -3 17 0 22 7 4 7 3 10 -2 6 -6 -3 -16 -1 -24 5 -13 8 -12 9 1 5 9
-3 22 0 28 6 10 9 12 9 9 -3 -3 -15 6 -16 50 -6 49 11 61 17 56 31 -3 7 0 16
7 21 8 4 10 3 5 -4 -10 -17 2 -32 20 -25 9 3 13 12 10 22 -4 11 -2 10 9 -3 8
-11 15 -15 15 -8 0 6 7 9 15 6 8 -4 15 -1 15 6 0 7 7 10 15 6 20 -7 65 10 82
32 12 15 13 16 7 0 -4 -13 -1 -15 16 -11 17 5 19 8 8 15 -9 7 -4 8 15 3 16 -3
26 -2 23 3 -3 5 6 7 21 4 19 -4 24 -2 18 8 -5 9 -2 10 15 5 17 -5 21 -4 15 5
-5 8 -4 11 2 7 13 -8 93 13 93 25 0 5 -6 6 -12 2 -10 -5 -10 -3 0 7 10 11 14
11 21 1 7 -12 23 -10 81 15 8 3 18 7 23 8 4 2 8 3 10 5 1 1 9 3 17 5 8 1 32
10 53 18 20 9 41 17 45 17 4 1 14 8 23 16 9 8 19 11 22 7 4 -3 7 0 7 7 0 7 3
11 6 7 5 -5 58 16 72 28 2 2 -2 13 -8 25 -9 17 -9 25 0 34 9 8 11 7 10 -4 -1
-8 -2 -20 -1 -26 1 -13 40 -11 49 3 4 6 22 14 39 17 175 38 97 455 -207 1107
-375 805 -1016 1713 -1407 1991 -121 87 -189 106 -249 69z m1014 -1320 c52
-27 82 -62 147 -171 58 -99 95 -198 95 -256 0 -42 -22 -96 -55 -140 -26 -34
-169 -134 -191 -134 -23 0 -380 591 -371 615 6 14 118 74 171 91 63 20 160 17
204 -5z m-15 -1068 c-5 -12 -3 -14 7 -8 9 5 11 4 6 -3 -4 -7 -1 -12 8 -12 20
0 21 -26 1 -34 -8 -3 -15 -9 -14 -13 1 -4 1 -15 0 -23 -1 -12 -4 -11 -12 3 -8
14 -8 22 0 30 15 15 14 40 -1 31 -7 -4 -10 -4 -6 1 4 4 0 14 -10 22 -13 10
-14 13 -2 11 8 -2 14 3 12 10 -1 8 2 11 7 7 6 -3 7 -13 4 -22z m62 -73 c3 -6
-1 -7 -9 -4 -18 7 -21 14 -7 14 6 0 13 -4 16 -10z m-367 -25 c-3 -3 -9 2 -12
12 -6 14 -5 15 5 6 7 -7 10 -15 7 -18z m52 5 c0 -5 -5 -10 -11 -10 -5 0 -7 5
-4 10 3 6 8 10 11 10 2 0 4 -4 4 -10z m363 -70 c-15 -17 -43 -17 -43 1 0 12
32 28 46 22 9 -3 9 -9 -3 -23z m-638 10 c3 -5 2 -10 -4 -10 -5 0 -13 5 -16 10
-3 6 -2 10 4 10 5 0 13 -4 16 -10z m690 -59 c3 -5 1 -12 -5 -16 -5 -3 -10 1
-10 9 0 18 6 21 15 7z m-818 -7 c-3 -3 -12 -4 -19 -1 -8 3 -5 6 6 6 11 1 17
-2 13 -5z m848 -13 c3 -5 2 -12 -3 -15 -5 -3 -9 1 -9 9 0 17 3 19 12 6z m-854
-18 c13 -15 12 -15 -11 -3 -34 17 -36 20 -18 20 9 0 22 -7 29 -17z m-156 -23
c-3 -5 -12 -10 -18 -10 -7 0 -6 4 3 10 19 12 23 12 15 0z m1005 0 c0 -5 -2
-10 -4 -10 -3 0 -8 5 -11 10 -3 6 -1 10 4 10 6 0 11 -4 11 -10z m31 -7 c13
-16 12 -17 -3 -4 -10 7 -18 15 -18 17 0 8 8 3 21 -13z m-1078 -34 c4 -16 3
-18 -9 -8 -7 6 -11 15 -8 20 8 13 11 11 17 -12z m38 4 c13 -15 12 -15 -8 -4
-24 12 -29 21 -14 21 5 0 15 -7 22 -17z m1053 -8 c-4 -8 -7 -15 -9 -15 -2 0
-5 7 -9 15 -3 9 0 15 9 15 9 0 12 -6 9 -15z m56 -48 c8 -3 0 -5 -17 -4 -20 1
-33 7 -33 14 0 10 5 11 18 5 9 -5 24 -12 32 -15z m-27 -39 c-9 -10 -19 -18
-22 -18 -4 0 -7 8 -7 18 0 12 8 18 23 18 21 0 21 -1 6 -18z m93 -21 c4 -6 4
-9 -1 -5 -13 12 -33 -11 -28 -31 6 -23 37 -33 54 -17 9 8 10 8 4 -3 -6 -11 -4
-13 9 -8 10 4 15 3 11 -3 -3 -5 -20 -8 -37 -6 -34 4 -62 32 -53 54 2 7 -2 15
-10 19 -12 4 -13 9 -4 19 12 15 42 5 55 -19z m-1329 7 c-3 -3 -12 -4 -19 -1
-8 3 -5 6 6 6 11 1 17 -2 13 -5z m1343 -34 c0 -5 -2 -10 -4 -10 -3 0 -8 5 -11
10 -3 6 -1 10 4 10 6 0 11 -4 11 -10z m75 -70 l20 -25 -22 19 c-13 11 -23 24
-23 29 0 6 1 8 3 6 1 -2 11 -15 22 -29z m-13 -28 c-7 -2 -10 -7 -8 -11 3 -4
-1 -8 -8 -8 -7 0 -13 6 -13 13 0 7 4 11 9 8 4 -3 8 0 8 6 0 6 5 8 12 4 9 -6 9
-9 0 -12z m-1662 -7 c-7 -8 -18 -15 -24 -15 -6 0 -2 7 8 15 25 19 32 19 16 0z
m-62 -59 c2 -32 -21 -51 -45 -37 -16 9 -15 11 10 20 15 6 27 14 26 18 -2 11 0
23 4 23 1 0 4 -11 5 -24z m1832 -29 c8 -2 -4 -4 -26 -3 -31 1 -41 5 -38 16 1
8 3 21 3 29 1 9 9 5 24 -11 12 -14 29 -28 37 -31z m50 -22 c-14 -17 0 -27 19
-13 9 7 13 8 8 3 -4 -4 0 -19 8 -32 9 -13 12 -23 8 -24 -5 0 -19 -2 -33 -5
-25 -4 -25 -4 -3 9 14 8 19 17 14 25 -5 9 -13 7 -29 -8 -25 -23 -25 -23 -26
41 -1 46 -1 46 22 31 16 -10 19 -18 12 -27z m60 -30 c5 3 11 1 14 -4 4 -5 -2
-8 -11 -7 -9 2 -18 8 -19 15 -1 6 0 7 3 1 2 -5 9 -8 13 -5z m-2046 -17 c-5 -7
-2 -9 8 -6 8 4 15 0 15 -7 0 -10 -5 -11 -17 -5 -10 5 -20 6 -24 2 -4 -3 -4 1
0 11 3 9 10 17 16 17 5 0 6 -5 2 -12z m2130 -36 c3 -5 -1 -9 -9 -9 -8 0 -12 4
-9 9 3 4 7 8 9 8 2 0 6 -4 9 -8z m-2217 -28 c-3 -3 -12 -4 -19 -1 -8 3 -5 6 6
6 11 1 17 -2 13 -5z m2238 -24 c3 -5 1 -10 -4 -10 -6 0 -11 5 -11 10 0 6 2 10
4 10 3 0 8 -4 11 -10z m-25 -4 c0 -3 -4 -8 -10 -11 -5 -3 -10 -1 -10 4 0 6 5
11 10 11 6 0 10 -2 10 -4z m-30 -26 c0 -16 -17 -20 -28 -7 -8 10 -6 13 9 14
10 1 19 -2 19 -7z m-46 -8 c3 -5 -1 -9 -9 -9 -8 0 -12 4 -9 9 3 4 7 8 9 8 2 0
6 -4 9 -8z m-2193 -35 c-10 -9 -11 -8 -5 6 3 10 9 15 12 12 3 -3 0 -11 -7 -18z
m2199 3 c0 -5 -7 -7 -15 -4 -8 4 -15 8 -15 10 0 2 7 4 15 4 8 0 15 -4 15 -10z
m-2215 -20 c3 -5 1 -10 -4 -10 -6 0 -11 5 -11 10 0 6 2 10 4 10 3 0 8 -4 11
-10z m2055 -42 c0 -6 -6 -5 -15 2 -8 7 -15 14 -15 16 0 2 7 1 15 -2 8 -4 15
-11 15 -16z m-260 -58 c0 -5 -2 -10 -4 -10 -3 0 -8 5 -11 10 -3 6 -1 10 4 10
6 0 11 -4 11 -10z m-2013 -22 c-3 -8 -6 -5 -6 6 -1 11 2 17 5 13 3 -3 4 -12 1
-19z m1937 -8 c-6 -6 -10 -3 -10 10 0 13 4 16 10 10 7 -7 7 -13 0 -20z m40 22
c3 -5 -1 -9 -9 -9 -8 0 -12 4 -9 9 3 4 7 8 9 8 2 0 6 -4 9 -8z m-2049 -22 c-3
-5 -1 -10 6 -10 7 0 10 -3 6 -6 -9 -9 -28 6 -22 17 4 5 8 9 11 9 3 0 2 -4 -1
-10z m50 -20 c-3 -5 -12 -10 -18 -10 -7 0 -6 4 3 10 19 12 23 12 15 0z m25
-10 c0 -5 -5 -10 -11 -10 -5 0 -7 5 -4 10 3 6 8 10 11 10 2 0 4 -4 4 -10z
m1700 -43 c0 -4 -6 -2 -14 5 -8 7 -12 17 -9 22 5 8 23 -12 23 -27z m24 17 c3
-8 2 -12 -4 -9 -6 3 -10 10 -10 16 0 14 7 11 14 -7z m-1899 -4 c-3 -5 -10 -10
-16 -10 -5 0 -9 5 -9 10 0 6 7 10 16 10 8 0 12 -4 9 -10z m2 -56 c-3 -3 -12
-4 -19 -1 -8 3 -5 6 6 6 11 1 17 -2 13 -5z m1533 -18 c-10 -13 -40 -12 -40 1
0 3 7 3 15 0 8 -4 17 -2 20 3 4 6 9 10 12 10 3 0 0 -6 -7 -14z m59 -13 c-6 -7
-15 -10 -20 -7 -13 8 -3 21 15 21 12 0 13 -4 5 -14z m-109 3 c0 -2 -8 -10 -17
-17 -16 -13 -17 -12 -4 4 13 16 21 21 21 13z m-1650 -15 c0 -11 -31 -24 -39
-16 -3 3 1 10 9 15 19 12 30 12 30 1z m1690 -5 c0 -2 -7 -7 -16 -10 -8 -3 -12
-2 -9 4 6 10 25 14 25 6z m-293 -53 c0 -9 -4 -10 -14 -2 -7 6 -13 12 -13 14 0
1 6 2 13 2 8 0 14 -6 14 -14z m35 -7 c7 4 8 2 4 -5 -9 -13 -26 -5 -25 12 0 9
2 8 6 -1 2 -6 10 -9 15 -6z m-1655 -38 c0 -7 -13 -13 -29 -14 -34 -1 -36 4 -5
16 30 12 34 12 34 -2z m-124 -15 c-7 -2 -19 -2 -25 0 -7 3 -2 5 12 5 14 0 19
-2 13 -5z m1284 -17 c0 -8 -6 -12 -15 -9 -11 5 -11 7 0 14 7 5 13 9 14 9 0 0
1 -6 1 -14z m89 2 c4 -7 4 -10 -1 -6 -4 4 -14 3 -21 -3 -8 -7 -14 -6 -20 2 -4
7 -3 9 4 5 6 -3 13 -2 17 4 8 13 12 13 21 -2z m-1406 -14 c0 -8 -5 -12 -10 -9
-6 4 -8 11 -5 16 9 14 15 11 15 -7z m-63 -30 c-3 -3 -12 -4 -19 -1 -8 3 -5 6
6 6 11 1 17 -2 13 -5z m1040 -30 c-3 -3 -12 -4 -19 -1 -8 3 -5 6 6 6 11 1 17
-2 13 -5z m63 -5 c0 -5 -5 -7 -12 -3 -8 5 -9 0 -5 -17 6 -23 5 -23 -8 -5 -12
16 -12 22 -2 28 17 11 27 10 27 -3z m97 4 c-9 -2 -15 -8 -13 -12 3 -4 -9 -5
-27 -2 l-32 5 30 7 c34 7 71 10 42 2z m-222 -13 c4 -6 -1 -7 -11 -3 -13 5 -15
3 -9 -7 5 -9 4 -11 -4 -6 -6 4 -9 12 -6 17 8 12 22 12 30 -1z m-1255 -34 c0
-2 -7 -7 -16 -10 -8 -3 -12 -2 -9 4 6 10 25 14 25 6z m1265 -6 c3 -5 1 -10 -4
-10 -6 0 -11 5 -11 10 0 6 2 10 4 10 3 0 8 -4 11 -10z m-1235 -10 c0 -5 -10
-10 -22 -9 -22 0 -22 1 -3 9 11 5 21 9 23 9 1 1 2 -3 2 -9z m930 -20 c0 -5 -5
-10 -11 -10 -5 0 -7 5 -4 10 3 6 8 10 11 10 2 0 4 -4 4 -10z m97 4 c-3 -3 -12
-4 -19 -1 -8 3 -5 6 6 6 11 1 17 -2 13 -5z m-47 -14 c-8 -5 -22 -9 -30 -9 -10
0 -8 3 5 9 27 12 43 12 25 0z m-86 -21 c-3 -5 -10 -7 -15 -3 -5 3 -7 10 -3 15
3 5 10 7 15 3 5 -3 7 -10 3 -15z m-1227 -26 c-3 -3 -11 -2 -17 2 -9 6 -9 10 1
16 14 8 27 -7 16 -18z m73 9 c-8 -3 -20 -8 -25 -13 -7 -5 -11 -1 -12 10 -1 14
4 17 25 13 17 -3 21 -7 12 -10z m-145 -12 c-3 -5 -11 -10 -16 -10 -6 0 -7 5
-4 10 3 6 11 10 16 10 6 0 7 -4 4 -10z m40 0 c3 -5 -1 -10 -10 -10 -9 0 -13 5
-10 10 3 6 8 10 10 10 2 0 7 -4 10 -10z m854 -24 c8 -10 9 -16 1 -21 -6 -4 -9
-1 -8 6 2 6 -3 14 -11 17 -9 3 -11 0 -6 -8 5 -9 4 -11 -4 -6 -12 8 -6 26 8 26
5 0 14 -6 20 -14z m66 -6 c-11 -5 -27 -9 -35 -9 -9 0 -8 4 5 9 11 5 27 9 35 9
9 0 8 -4 -5 -9z m-1169 -18 c-10 -2 -22 0 -28 6 -6 6 0 7 19 4 21 -5 23 -7 9
-10z m1015 -5 c-10 -9 -11 -8 -5 6 3 10 9 15 12 12 3 -3 0 -11 -7 -18z m-1026
-6 l30 -7 -32 -5 c-18 -3 -30 -2 -27 3 8 12 -40 10 -53 -3 -6 -6 -17 -8 -25
-3 -27 17 51 28 107 15z m1112 -7 c-3 -3 -12 -4 -19 -1 -8 3 -5 6 6 6 11 1 17
-2 13 -5z m-347 -45 c0 -5 -7 -9 -15 -9 -15 0 -20 12 -9 23 8 8 24 -1 24 -14z
m90 12 c0 -6 -5 -13 -12 -17 -6 -4 -8 -3 -4 4 3 5 0 13 -6 15 -8 3 -6 6 5 6 9
1 17 -3 17 -8z m80 5 c0 -2 -7 -6 -15 -10 -8 -3 -15 -1 -15 4 0 6 7 10 15 10
8 0 15 -2 15 -4z m-266 -17 c-8 -13 -41 -16 -41 -4 0 7 10 12 23 11 12 0 20
-4 18 -7z m39 -9 c-10 -11 -19 -20 -20 -20 -7 0 3 26 12 32 20 15 24 8 8 -12z
m-549 -57 c-5 -5 -12 -12 -16 -18 -4 -6 -8 -2 -8 8 0 9 7 17 17 17 9 0 12 -3
7 -7z m163 -7 c0 -8 -6 -12 -15 -8 -10 3 -13 1 -8 -6 11 -18 0 -14 -15 5 -8 9
-9 14 -4 11 6 -4 17 -3 25 3 8 5 15 9 16 9 0 0 1 -6 1 -14z m56 1 c3 -8 -1
-14 -9 -14 -15 0 -18 9 -7 20 9 9 10 9 16 -6z m-126 -8 c-9 -6 -15 -14 -12
-19 3 -5 0 -12 -7 -17 -16 -10 -42 -14 -33 -5 4 4 11 7 17 7 6 0 12 8 14 18 1
9 -2 17 -7 17 -5 0 -9 -5 -9 -12 0 -6 -3 -9 -6 -5 -12 12 8 27 34 27 23 -1 25
-2 9 -11z m200 5 c-3 -3 -12 -4 -19 -1 -8 3 -5 6 6 6 11 1 17 -2 13 -5z m-277
-14 c0 -5 -5 -10 -11 -10 -5 0 -7 5 -4 10 3 6 8 10 11 10 2 0 4 -4 4 -10z
m-527 -17 c-3 -7 -8 -13 -12 -13 -4 0 -8 6 -8 13 0 8 6 14 13 14 7 0 10 -6 7
-14z m637 2 c0 -2 -9 -9 -20 -15 -16 -9 -18 -8 -14 5 5 13 34 22 34 10z m-533
-41 c-3 -3 -12 -4 -19 -1 -8 3 -5 6 6 6 11 1 17 -2 13 -5z m48 -4 c-3 -5 -1
-10 6 -10 7 0 10 -2 8 -5 -3 -2 -16 -1 -29 2 -22 6 -23 7 -4 14 26 10 26 10
19 -1z m42 4 c-3 -3 -12 -4 -19 -1 -8 3 -5 6 6 6 11 1 17 -2 13 -5z m121 -9
c4 -5 1 -4 -7 0 -11 6 -13 4 -8 -7 6 -16 -1 -17 -38 -4 -57 21 -58 23 -7 21
29 -1 56 -6 60 -10z m82 6 c0 -4 -11 -7 -24 -7 -14 0 -23 3 -21 6 5 9 45 10
45 1z m-340 -35 c0 5 5 2 10 -6 6 -9 13 -11 18 -5 12 17 32 16 25 -1 -3 -8 -8
-12 -11 -10 -3 3 -10 2 -16 -3 -7 -5 -22 3 -41 22 -16 17 -20 23 -7 12 12 -10
22 -14 22 -9z m154 -8 c6 -4 1 -6 -10 -6 -16 2 -20 7 -16 22 4 15 7 17 10 6 3
-8 10 -18 16 -22z m-50 3 c3 -5 -1 -11 -9 -14 -9 -4 -12 -1 -8 9 6 16 10 17
17 5z"/>
<path d="M33945 23529 c-4 -6 -5 -12 -2 -15 2 -3 7 2 10 11 7 17 1 20 -8 4z"/>
<path d="M34160 23270 c0 -13 18 -22 24 -11 3 5 -1 11 -9 15 -8 3 -15 1 -15
-4z"/>
<path d="M34416 23018 c-8 -26 -3 -46 11 -41 11 4 11 8 1 20 -9 11 -9 16 3 24
10 6 11 9 1 9 -7 0 -14 -6 -16 -12z"/>
<path d="M14755 24424 c-521 -55 -898 -224 -1244 -559 -269 -260 -381 -490
-302 -621 l17 -29 -42 -58 c-183 -249 -216 -624 -76 -877 101 -183 525 -517
891 -701 145 -73 174 -80 193 -48 15 27 17 258 4 420 l-8 96 -66 1 c-80 2
-118 12 -178 47 -55 32 -99 91 -119 158 -27 92 -14 227 26 263 18 16 22 16 52
2 17 -8 75 -48 126 -87 147 -111 178 -109 147 12 -20 77 -108 327 -175 496
-23 57 -41 105 -39 106 2 2 36 -6 77 -16 111 -28 238 -34 359 -15 126 19 289
72 395 129 82 43 117 76 117 109 0 21 -5 20 115 42 120 23 241 64 378 130 171
81 229 144 178 190 -22 20 -130 56 -169 56 -42 0 -22 8 75 29 234 51 486 163
524 233 43 80 -155 156 -532 203 -109 13 -163 25 -115 25 31 0 129 39 153 62
13 12 23 29 23 39 0 49 -138 113 -310 145 -82 15 -393 26 -475 18z"/>
<path d="M23300 23728 c-146 -17 -267 -31 -268 -33 -2 -2 5 -93 17 -202 11
-109 41 -396 66 -638 25 -242 54 -519 65 -615 11 -96 27 -242 35 -325 59 -581
149 -1237 186 -1354 l11 -33 232 7 c127 4 235 9 239 12 17 10 6 141 -88 1113
-19 201 -37 376 -40 390 -2 14 -7 63 -10 110 -3 47 -12 144 -20 215 -8 72 -24
222 -35 335 -46 464 -101 987 -106 1018 -2 17 -8 31 -12 31 -4 -1 -126 -15
-272 -31z"/>
<path d="M33496 23628 c3 -4 9 -8 15 -8 5 0 9 4 9 8 0 5 -7 9 -15 9 -8 0 -12
-4 -9 -9z"/>
<path d="M32690 23200 c0 -5 5 -10 11 -10 5 0 7 5 4 10 -3 6 -8 10 -11 10 -2
0 -4 -4 -4 -10z"/>
<path d="M29998 22033 c7 -3 16 -2 19 1 4 3 -2 6 -13 5 -11 0 -14 -3 -6 -6z"/>
<path d="M22094 21860 c-94 -30 -392 -183 -684 -351 -146 -84 -281 -160 -301
-170 -77 -38 -1051 -631 -1084 -659 -11 -10 -110 -73 -220 -141 -728 -446
-959 -583 -1103 -652 l-87 -42 -320 1 c-325 1 -525 9 -1125 45 -596 35 -1018
67 -1038 78 -10 5 -23 6 -28 2 -5 -5 -110 0 -234 10 -124 10 -235 18 -247 18
-20 1 -16 -10 46 -141 127 -265 201 -476 201 -570 0 -86 -71 -100 -195 -39
-58 29 -65 35 -65 62 0 48 -25 84 -85 124 -81 53 -285 149 -296 138 -16 -16
-51 -127 -56 -179 -7 -63 9 -115 49 -160 30 -34 30 -35 23 -117 -22 -275 -85
-407 -193 -407 -65 0 -258 76 -485 192 -393 201 -695 456 -811 688 -60 117
-71 164 -70 285 1 125 13 170 44 160 16 -5 20 -2 20 14 0 12 -5 21 -10 21 -29
0 -651 -638 -749 -768 -20 -26 -70 -88 -111 -137 -158 -188 -399 -526 -502
-704 -28 -49 -823 -1145 -1313 -1811 -631 -856 -888 -1185 -1021 -1305 -665
-599 -2008 -1926 -2475 -2446 -268 -298 -419 -501 -419 -564 0 -66 201 -316
459 -570 179 -176 150 -149 281 -259 185 -155 424 -301 572 -350 117 -38 214
-39 303 -2 121 51 412 274 755 580 546 485 1912 1844 2133 2121 113 141 692
915 941 1258 115 158 210 286 211 285 5 -5 185 -448 185 -453 0 -10 216 -523
499 -1183 147 -345 270 -633 273 -641 5 -16 66 -35 293 -91 623 -153 1243
-186 1819 -99 71 10 137 19 146 19 14 0 18 -14 23 -77 8 -89 49 -280 71 -323
17 -36 26 -33 -159 -59 -686 -99 -1267 -68 -1668 89 -184 72 -348 180 -407
269 -19 29 -31 39 -35 30 -102 -273 -173 -582 -217 -939 -17 -140 -17 -612 0
-750 27 -214 87 -458 147 -601 201 -479 309 -808 413 -1259 84 -363 147 -775
168 -1097 l7 -103 1472 0 1473 0 6 48 c3 26 8 98 12 160 3 61 8 112 9 112 2 0
74 -72 161 -160 l157 -160 1320 0 1319 0 -6 28 c-21 89 -255 499 -553 967
-500 788 -1332 2026 -2347 3495 l-300 435 -8 -38 c-31 -149 -199 -292 -446
-381 -40 -14 -74 -26 -75 -26 -1 0 -2 39 -2 88 -1 95 -42 338 -61 356 -8 8 21
23 115 57 153 55 286 113 405 177 105 55 99 43 121 247 27 256 36 476 36 925
0 853 -59 1759 -171 2649 -29 225 -96 679 -105 711 -4 13 37 15 323 16 332 1
536 9 1082 45 375 24 933 67 980 76 186 32 651 274 1305 678 935 577 2086
1380 2354 1641 l64 63 -5 63 c-15 174 -265 689 -556 1143 -106 166 -213 309
-242 325 -25 13 -34 12 -106 -10z"/>
<path d="M21250 5475 l0 -1445 2455 0 2455 0 0 438 0 439 405 397 405 398 0
609 0 609 -2860 0 -2860 0 0 -1445z"/>
<path d="M12990 3161 c-2643 -3 -4806 -7 -4806 -9 -1 -1 -7 -16 -14 -32 -16
-38 -1 -77 32 -85 13 -3 7765 -4 17228 -3 l17204 3 15 26 c17 30 9 74 -17 88
-21 11 -22669 20 -29642 12z"/>
</g>
</svg>
