<?xml version="1.0" standalone="no"?>
<!DOCTYPE svg PUBLIC "-//W3C//DTD SVG 20010904//EN"
 "http://www.w3.org/TR/2001/REC-SVG-20010904/DTD/svg10.dtd">
<svg version="1.0" xmlns="http://www.w3.org/2000/svg"
 width="7730.000000pt" height="7730.000000pt" viewBox="0 0 7730.000000 7730.000000"
 preserveAspectRatio="xMidYMid meet">

<g transform="translate(0.000000,7730.000000) scale(0.100000,-0.100000)"
fill="#000000" stroke="none">
<path d="M37710 63584 c-326 -40 -556 -98 -725 -185 -279 -142 -504 -404 -606
-707 -70 -206 -78 -329 -44 -687 31 -338 36 -388 75 -820 17 -187 33 -360 35
-385 3 -25 14 -146 25 -270 11 -124 22 -247 25 -275 11 -108 15 -142 20 -200
3 -33 12 -135 20 -228 8 -92 15 -174 15 -183 0 -17 -41 -17 -470 1 -63 3 -196
7 -295 10 -99 3 -232 7 -295 10 -122 5 -315 11 -600 20 -96 3 -229 8 -295 10
-66 3 -194 7 -285 10 -91 3 -223 7 -295 10 -71 3 -204 7 -295 10 -91 3 -219 8
-285 11 -264 11 -406 7 -490 -14 -151 -38 -245 -83 -363 -174 -153 -119 -275
-317 -317 -519 -12 -57 -15 -169 -15 -590 l0 -519 235 0 235 0 0 340 c0 377 6
434 62 568 95 228 284 400 533 483 l70 24 897 3 c890 3 898 2 918 -18 30 -30
27 -83 -6 -109 -27 -21 -32 -21 -873 -21 -813 0 -849 -1 -930 -20 -231 -56
-415 -229 -492 -465 -22 -66 -23 -88 -27 -427 l-4 -358 5646 0 5646 0 0 48 c0
126 -41 690 -54 746 -38 164 -116 306 -231 422 -156 158 -347 246 -565 260
-47 3 -786 30 -1643 59 -857 29 -1560 55 -1563 57 -2 3 36 88 85 189 665 1372
537 2494 -364 3192 -452 350 -988 587 -1520 672 -96 16 -514 29 -595 19z m896
-453 c61 -10 121 -24 133 -30 41 -22 41 -93 0 -123 -26 -19 -29 -19 -120 -4
-319 55 -632 44 -942 -34 -212 -53 -353 -129 -496 -265 -151 -144 -254 -328
-296 -528 -27 -124 -28 -221 -6 -456 20 -205 20 -226 6 -248 -30 -45 -90 -50
-124 -9 -20 24 -53 407 -48 551 16 417 246 785 617 988 152 84 382 145 680
181 92 11 489 -4 596 -23z m-106 -948 c258 -61 470 -257 563 -521 30 -82 31
-95 32 -237 0 -174 -12 -233 -76 -362 -100 -202 -292 -357 -514 -414 -110 -28
-280 -28 -387 0 -186 48 -352 165 -458 322 -96 140 -134 268 -134 444 0 143
18 226 74 342 140 289 438 466 755 446 44 -2 109 -11 145 -20z m-1600 -1083
c11 -6 24 -18 29 -28 5 -9 19 -129 32 -265 24 -269 22 -289 -26 -307 -32 -12
-90 9 -99 37 -7 23 -46 434 -46 491 0 67 53 102 110 72z m-830 -1780 c30 -30
27 -83 -6 -109 -25 -20 -39 -21 -264 -21 -225 0 -239 1 -264 21 -33 26 -36 79
-6 109 19 19 33 20 270 20 237 0 251 -1 270 -20z"/>
<path d="M23745 57755 c-138 -25 -248 -72 -372 -157 -76 -52 -206 -182 -239
-236 -16 -27 -31 -36 -104 -57 -244 -73 -552 -209 -770 -340 -643 -387 -1134
-980 -1395 -1685 -103 -280 -166 -569 -194 -900 -5 -61 -9 -5215 -10 -12287
l-1 -12181 -342 -704 c-260 -533 -342 -712 -342 -740 -1 -64 26 -86 201 -173
89 -44 165 -83 169 -87 3 -4 -134 -296 -307 -650 -172 -354 -352 -724 -400
-823 -333 -687 -1239 -2549 -1242 -2552 -2 -2 -78 33 -169 77 -243 117 -261
113 -359 -82 -187 -373 -319 -660 -319 -694 0 -70 22 -89 203 -180 92 -46 167
-86 167 -88 0 -7 -251 -529 -410 -851 -327 -665 -350 -721 -350 -867 0 -104
15 -168 60 -263 58 -121 112 -174 342 -332 914 -632 1881 -1227 2815 -1733
l283 -153 0 -948 0 -949 -5347 0 c-5319 0 -5348 0 -5381 -20 -18 -11 -41 -34
-52 -52 -20 -33 -20 -50 -18 -1479 l3 -1445 24 -36 c13 -19 40 -46 59 -59 34
-23 45 -24 236 -29 l201 -5 3 -152 3 -153 -266 0 -265 0 0 -1084 0 -1083 23
-33 c46 -69 68 -75 299 -78 l208 -3 0 -190 0 -189 12705 0 12705 0 1 43 c0 23
2 89 4 147 2 58 4 124 4 147 l1 42 184 3 c169 3 187 5 213 24 28 21 44 21
5903 128 3231 59 7439 136 9350 171 1996 37 3522 68 3585 75 409 42 816 213
1137 478 48 40 93 72 100 71 7 0 128 -58 268 -127 l255 -127 12 -105 c44 -366
217 -737 460 -986 215 -220 474 -361 793 -430 132 -29 476 -27 620 4 707 153
1297 705 1544 1443 363 1087 -149 2173 -1127 2390 -119 27 -396 37 -534 19
-240 -30 -544 -140 -733 -267 -19 -13 -40 -23 -47 -23 -11 0 -850 404 -861
415 -9 9 -3 112 12 199 30 168 18 382 -30 540 -21 69 -27 120 -40 351 -8 149
-258 5047 -555 10885 -296 5838 -591 11632 -654 12875 -118 2309 -397 7802
-460 9035 -19 377 -98 1925 -175 3440 -76 1515 -142 2793 -145 2840 -41 589
-256 1144 -624 1610 -118 148 -373 398 -516 506 -461 346 -969 538 -1539 584
-134 10 -4426 15 -4426 5 0 -3 17 -29 39 -58 77 -103 158 -269 194 -397 56
-197 77 -471 48 -620 -7 -36 -15 -80 -17 -99 -3 -19 -18 -68 -35 -110 -152
-380 -483 -646 -879 -706 -82 -13 -719 -15 -4510 -16 -4763 -2 -4562 1 -3490
-48 3410 -157 6584 -179 9430 -66 790 32 1653 79 2357 130 189 14 385 25 437
25 439 0 807 -342 841 -782 9 -108 1974 -37092 1971 -37095 -1 -1 -60 32 -131
74 -833 485 -2069 1118 -3340 1711 -902 420 -1948 882 -3150 1390 -320 135
-764 322 -875 367 -58 23 -222 91 -365 150 -844 348 -1333 545 -2753 1111
-1191 476 -1834 729 -3997 1579 -2860 1124 -5084 2011 -6439 2569 -308 127
-505 204 -643 251 -14 5 14 66 267 580 262 536 264 541 251 584 -6 21 -21 47
-34 59 -12 12 -205 110 -427 218 -223 108 -408 199 -413 203 -4 4 206 446 466
982 261 536 576 1186 702 1444 221 455 393 806 401 814 2 2 39 -12 82 -32 43
-21 93 -37 112 -37 72 0 92 24 198 237 212 425 282 578 282 619 0 64 -30 100
-118 141 -42 20 -79 38 -81 40 -5 3 61 142 289 608 301 613 421 866 442 923
29 80 35 244 14 336 -22 91 -78 196 -143 266 -57 62 -325 253 -786 559 -1008
671 -2019 1255 -3127 1805 -1421 706 -2836 1273 -4435 1777 -269 84 -297 91
-395 96 -131 7 -196 -6 -303 -59 -61 -31 -100 -60 -153 -113 -88 -89 -58 -30
-676 -1310 -77 -159 -144 -293 -147 -298 -4 -4 -81 29 -171 73 -258 126 -247
133 -427 -230 -72 -146 -159 -325 -193 -398 -93 -199 -85 -217 160 -338 85
-42 156 -77 158 -79 2 -1 -162 -343 -364 -759 -203 -415 -369 -754 -371 -752
-7 6 -124 20219 -120 20726 3 482 4 497 26 570 116 384 447 646 841 667 91 4
164 -3 560 -56 989 -132 3124 -391 3223 -391 24 0 24 0 31 148 30 643 42 778
75 839 14 27 81 175 81 179 0 2 -375 4 -833 4 l-833 0 -534 65 c-545 66 -1130
141 -1730 220 -350 47 -455 52 -575 30z m7553 -33602 c107 -76 236 -153 687
-403 480 -267 1510 -845 2205 -1238 557 -315 1850 -1049 3290 -1870 333 -189
835 -475 1115 -635 281 -159 654 -372 830 -472 332 -189 1529 -867 1740 -985
1947 -1093 2595 -1453 3920 -2172 1274 -692 2842 -1505 3864 -2003 271 -132
489 -241 484 -242 -29 -9 -3254 -166 -4893 -238 -2861 -126 -6130 -242 -7850
-280 -140 -3 -297 -8 -347 -11 l-93 -5 0 45 0 46 -220 0 -220 0 0 154 0 155
173 3 c195 3 210 8 247 84 20 40 20 57 20 1478 0 1217 -2 1441 -14 1464 -21
41 -68 81 -107 92 -22 7 -1708 10 -4776 10 -2609 0 -4743 2 -4743 5 0 2 56
117 125 255 69 137 125 252 125 254 0 4 204 425 372 767 l111 227 81 -39 c92
-45 129 -48 177 -16 42 28 47 37 252 461 148 305 169 354 164 386 -8 61 -33
87 -123 130 l-84 40 24 52 c21 46 753 1553 1357 2793 110 226 304 625 432 888
127 262 235 477 239 477 4 0 193 -90 419 -200 452 -219 468 -225 526 -176 20
17 85 140 213 404 102 209 189 378 194 375 5 -4 43 -30 84 -60z m-9564 -5678
l76 -36 0 -654 0 -655 -80 0 -80 0 0 690 c0 380 2 690 4 690 2 0 38 -16 80
-35z m2087 -896 c271 -105 554 -207 919 -335 l325 -113 -717 -1 -718 0 0 260
c0 143 2 260 3 260 2 0 87 -32 188 -71z"/>
</g>
</svg>
